# xmcd
#
# Track frame offsets:
#	150
#	19400
#	34272
#	54000
#	67675
#	76812
#	88625
#	101017
#	118225
#	129402
#	139837
#	153375
#	173097
#
# Disc length: 2637 seconds
#
# Revision: 1
# Processed by: cddbd v1.5.1PL0 Copyright (c) Steve Scherf et al.
# Submitted via: CDex 1.50Beta5
#
DISCID=a00a4b0d
DTITLE=青学 - ミュージカル テニスの王子様
DYEAR=1900
DGENRE=
TTITLE0=全員/THIS IS THE PRINCE OF TENNIS
TTITLE1=堀尾/カチロー/カツオ/これが青学のテニス部なのだ
TTITLE2=堀尾/カチロー/カツオ///これが青学レギュラー陣なのだ
TTITLE3=全員/俺は桃ちゃん〜青学の暴れん坊
TTITLE4=全員/I`M ALWAYS WINNER
TTITLE5=全員/恥をかけ!リョーマ
TTITLE6=全員/I`M ALWAYS WINNER
TTITLE7=全員/ザ・レギュラー
TTITLE8=全員/俺はマムシ
TTITLE9=全員/俺はバーニング
TTITLE10=全員/菊丸VS不二
TTITLE11=全員/ザ・レギュラー
TTITLE12=全員/You got game?
EXTD=
EXTT0=
EXTT1=
EXTT2=
EXTT3=
EXTT4=
EXTT5=
EXTT6=
EXTT7=
EXTT8=
EXTT9=
EXTT10=
EXTT11=
EXTT12=
PLAYORDER=
